<svg width="50" height="32" viewBox="0 0 50 32" fill="none" xmlns="http://www.w3.org/2000/svg">
<rect width="50" height="32" rx="3" fill="white"/>
<path d="M30.8646 10.2998C32.0554 10.2998 33.0184 10.5463 33.6256 10.7696L33.2069 13.1526L32.9285 13.0354C32.3715 12.8123 31.6362 12.5893 30.6355 12.6129C29.4201 12.6129 28.8751 13.0939 28.8625 13.5636C28.8625 14.0802 29.5218 14.4207 30.5985 14.9257C32.372 15.7122 33.1946 16.6748 33.1823 17.9311C33.1574 20.2204 31.0546 21.6998 27.8247 21.6998C26.4437 21.6879 25.1136 21.4174 24.3916 21.1125L24.8224 18.6353L25.2277 18.8116C26.2284 19.2229 26.8869 19.3986 28.1159 19.3986C29.0022 19.3986 29.9524 19.0578 29.9645 18.3185C29.9645 17.8371 29.5597 17.4846 28.3688 16.9446C27.2036 16.4161 25.6457 15.5358 25.6709 13.9507C25.684 11.8024 27.8247 10.2998 30.8646 10.2998Z" fill="#1434CB"/>
<path d="M19.3884 21.5355H22.4667L24.3919 10.5H21.3138L19.3884 21.5355Z" fill="#1434CB"/>
<path fill-rule="evenodd" clip-rule="evenodd" d="M41.5167 10.5H39.1356C38.4014 10.5 37.8435 10.6994 37.5267 11.4156L32.9543 21.5353H36.1843C36.1843 21.5353 36.716 20.1733 36.8303 19.88H40.7826C40.8709 20.2674 41.1499 21.5353 41.1499 21.5353H44L41.5167 10.5ZM37.7169 17.626C37.9704 16.992 38.9459 14.5384 38.9459 14.5384C38.9407 14.5479 38.981 14.4445 39.0408 14.2908C39.1292 14.0637 39.2603 13.7267 39.3509 13.4819L39.566 14.4327C39.566 14.4327 40.149 17.0743 40.2756 17.626H37.7169Z" fill="#1434CB"/>
<path d="M11.0033 10.5H6.05067L6 10.723C7.20792 11.0093 8.28829 11.4219 9.23492 11.9349L11.9786 21.5238H15.2338L20.0723 10.5H16.8173L13.8026 18.0252L12.3966 11.4276C12.2193 10.7228 11.6746 10.5232 11.0033 10.5Z" fill="#1434CB"/>
<rect x="0.5" y="0.5" width="49" height="31" rx="2.5" stroke="black" stroke-opacity="0.08"/>
</svg>
