<svg width="50" height="32" viewBox="0 0 50 32" fill="none" xmlns="http://www.w3.org/2000/svg">
<g clip-path="url(#clip0_2236_16074)">
<path d="M-0.55976 0H22.2088C23.9912 0 25.0998 1.45279 24.684 3.24108L18.7393 28.7639C18.3198 30.546 16.5352 32 14.7516 32H-8.01574C-9.79563 32 -10.9067 30.546 -10.4909 28.7639L-4.54373 3.24108C-4.12794 1.45279 -2.34432 0 -0.55976 0Z" fill="#E21836"/>
<path d="M21.1455 0H35.829C37.6111 0 36.8075 1.45279 36.3883 3.24108L30.4445 28.7639C30.0275 30.546 30.1576 32 28.3718 32H13.6883C11.9025 32 10.7973 30.546 11.2168 28.7639L17.1603 3.24108C17.5823 1.45279 19.3622 0 21.1455 0Z" fill="#00447C"/>
<path d="M35.2474 0H58.016C59.8009 0 60.9094 1.45279 60.4902 3.24108L54.5465 28.7639C54.1269 30.546 52.3411 32 50.5566 32H27.7939C26.0081 32 24.9005 30.546 25.3188 28.7639L31.2635 3.24108C31.6793 1.45279 33.4616 0 35.2474 0Z" fill="#007B84"/>
<path d="M12.7743 8.17934C11.4613 8.19272 11.0735 8.17934 10.9496 8.15009C10.902 8.37635 10.0159 12.4636 10.0135 12.4671C9.82267 13.294 9.68387 13.8834 9.21236 14.2641C8.94471 14.4854 8.63224 14.5921 8.26998 14.5921C7.68768 14.5921 7.34844 14.303 7.29149 13.7546L7.2806 13.5663C7.2806 13.5663 7.45799 12.4587 7.45799 12.4524C7.45799 12.4524 8.38793 8.72772 8.55443 8.23536C8.56315 8.20735 8.56564 8.19272 8.56782 8.17934C6.75774 8.19521 6.43687 8.17934 6.41477 8.15009C6.40264 8.19023 6.35782 8.42116 6.35782 8.42116L5.40828 12.6193L5.32674 12.9753L5.16895 14.1399C5.16895 14.4854 5.23679 14.7673 5.37186 15.0057C5.80446 15.7617 7.03846 15.875 7.73654 15.875C8.63597 15.875 9.4797 15.6839 10.0499 15.335C11.0396 14.7502 11.2985 13.8361 11.5294 13.0238L11.6365 12.6071C11.6365 12.6071 12.5944 8.73861 12.7572 8.23536C12.7634 8.20735 12.7659 8.19272 12.7743 8.17934ZM16.0337 11.3001C15.8027 11.3001 15.3807 11.3561 15.0016 11.5419C14.8641 11.6126 14.734 11.6941 14.5967 11.7753L14.7206 11.3281L14.6528 11.2528C13.8489 11.4156 13.669 11.4374 12.9264 11.5419L12.8642 11.5833C12.778 12.2982 12.7014 12.8357 12.3818 14.2409C12.2601 14.7587 12.1337 15.2816 12.0071 15.7982L12.0413 15.8639C12.8022 15.8237 13.0332 15.8237 13.6945 15.8346L13.748 15.7764C13.8321 15.346 13.843 15.2452 14.0291 14.3734C14.1165 13.9601 14.2989 13.052 14.3888 12.7286C14.5541 12.6521 14.7172 12.5767 14.8728 12.5767C15.2435 12.5767 15.1983 12.9001 15.184 13.029C15.1682 13.2453 15.0331 13.9517 14.8946 14.5583L14.8022 14.9498C14.7377 15.2389 14.6671 15.52 14.6027 15.8066L14.6307 15.8639C15.3807 15.8237 15.6095 15.8237 16.25 15.8346L16.3253 15.7764C16.4411 15.1042 16.475 14.9243 16.6804 13.9455L16.7837 13.4958C16.9845 12.6156 17.0853 12.1694 16.9334 11.8058C16.7728 11.3985 16.3875 11.3001 16.0337 11.3001ZM19.6747 12.2216C19.2761 12.2982 19.0218 12.3492 18.7691 12.3822C18.5185 12.4223 18.2742 12.4588 17.8889 12.5123L17.8584 12.54L17.8304 12.5621C17.7903 12.849 17.7623 13.0971 17.709 13.3887C17.6639 13.6903 17.5945 14.0329 17.4815 14.5253C17.3941 14.9022 17.349 15.0335 17.2992 15.1661C17.2506 15.2987 17.1971 15.4275 17.0987 15.7982L17.1218 15.8324L17.1411 15.8639C17.5011 15.8467 17.7367 15.8346 17.9789 15.8324C18.2207 15.8237 18.4712 15.8324 18.859 15.8346L18.8929 15.8069L18.9293 15.7764C18.9854 15.4421 18.9938 15.3522 19.028 15.1891C19.0619 15.0142 19.1204 14.7721 19.2639 14.1254C19.3318 13.8216 19.4074 13.5188 19.4777 13.2088C19.5509 12.9001 19.6274 12.596 19.7003 12.2923L19.6894 12.2555L19.6747 12.2216ZM19.6832 10.9791C19.321 10.7653 18.6851 10.8332 18.2572 11.1285C17.8305 11.418 17.782 11.8288 18.143 12.0454C18.499 12.2533 19.1373 12.1914 19.5615 11.8935C19.9873 11.5979 20.0405 11.1908 19.6832 10.9791ZM21.8741 15.9309C22.607 15.9309 23.3583 15.7289 23.9238 15.1295C24.3589 14.6433 24.5584 13.92 24.6275 13.6222C24.8525 12.635 24.6773 12.1741 24.4572 11.8934C24.123 11.4654 23.5323 11.3282 22.9195 11.3282C22.551 11.3282 21.6733 11.3646 20.9877 11.9967C20.4954 12.4526 20.2679 13.0713 20.1306 13.6645C19.9921 14.2689 19.8328 15.357 20.8334 15.7619C21.1421 15.8944 21.5871 15.9309 21.8741 15.9309ZM21.8168 13.7097C21.9858 12.9621 22.1853 12.3347 22.6945 12.3347C23.0935 12.3347 23.1224 12.8015 22.945 13.5516C22.9133 13.7181 22.7676 14.3371 22.5706 14.6007C22.433 14.7952 22.2703 14.9132 22.0904 14.9132C22.0369 14.9132 21.7185 14.9132 21.7135 14.4404C21.711 14.207 21.7586 13.9686 21.8168 13.7097ZM26.4597 15.8347L26.5169 15.7765C26.5981 15.3461 26.6115 15.245 26.7914 14.3735C26.8814 13.9602 27.0675 13.0521 27.1549 12.7287C27.3205 12.6518 27.4808 12.5765 27.6414 12.5765C28.0095 12.5765 27.9647 12.8999 27.9501 13.0287C27.9367 13.2453 27.8016 13.9515 27.6607 14.5581L27.5732 14.9496C27.5063 15.239 27.4335 15.5198 27.369 15.8067L27.3971 15.864C28.1496 15.8238 28.3696 15.8238 29.0139 15.8347L29.0917 15.7765C29.2046 15.104 29.2351 14.9241 29.4468 13.9456L29.5476 13.4956C29.7493 12.6154 29.8514 12.1694 29.702 11.8059C29.5367 11.3985 29.1489 11.3002 28.8001 11.3002C28.5688 11.3002 28.1446 11.3559 27.7677 11.542C27.633 11.6127 27.4979 11.6939 27.3653 11.7754L27.4808 11.3282L27.4188 11.2526C26.6153 11.4157 26.4316 11.4374 25.69 11.542L25.633 11.5834C25.5431 12.2983 25.47 12.8355 25.1503 14.2409C25.0286 14.7588 24.9023 15.2817 24.7759 15.7983L24.8099 15.864C25.572 15.8238 25.7995 15.8238 26.4597 15.8347ZM31.9887 15.8638C32.036 15.6329 32.317 14.2641 32.3195 14.2641C32.3195 14.2641 32.5589 13.2598 32.5735 13.2234C32.5735 13.2234 32.6488 13.1188 32.7241 13.0774H32.8349C33.8803 13.0774 35.0608 13.0774 35.986 12.3968C36.6157 11.93 37.0461 11.2406 37.2381 10.4028C37.2879 10.1974 37.3246 9.95307 37.3246 9.70876C37.3246 9.38789 37.2602 9.07044 37.0741 8.82239C36.6023 8.16229 35.6627 8.15015 34.5781 8.14517C34.5746 8.14517 34.0434 8.15015 34.0434 8.15015C32.655 8.16727 32.0982 8.16229 31.8695 8.13428C31.8502 8.23542 31.8138 8.41531 31.8138 8.41531C31.8138 8.41531 31.3165 10.7202 31.3165 10.724C31.3165 10.724 30.1263 15.6245 30.0703 15.8554C31.2825 15.8408 31.7796 15.8408 31.9887 15.8638ZM32.9102 11.7694C32.9102 11.7694 33.439 9.46911 33.4365 9.47783L33.4536 9.35988L33.4611 9.26993L33.6724 9.29172C33.6724 9.29172 34.7629 9.3854 34.7885 9.38788C35.2189 9.55439 35.3963 9.98357 35.2724 10.5438C35.1594 11.0557 34.8274 11.4862 34.4007 11.6941C34.0493 11.8702 33.6189 11.8848 33.1754 11.8848H32.8884L32.9102 11.7694ZM36.2025 13.7523C36.0627 14.3479 35.9021 15.436 36.8977 15.8238C37.2152 15.9588 37.4997 15.999 37.7888 15.9844C38.0941 15.9679 38.377 15.8147 38.639 15.5944C38.6154 15.685 38.5917 15.7755 38.5681 15.8664L38.6132 15.9246C39.3293 15.8944 39.5515 15.8944 40.3274 15.9003L40.3978 15.8468C40.5111 15.1808 40.6178 14.5341 40.9122 13.2599C41.0557 12.6496 41.1989 12.0452 41.3461 11.4374L41.323 11.3705C40.5219 11.5189 40.3078 11.5507 39.5372 11.6599L39.4787 11.7075C39.4709 11.7695 39.4629 11.8289 39.4554 11.8883C39.3356 11.6948 39.1619 11.5295 38.8939 11.4265C38.5513 11.2917 37.7465 11.4654 37.0546 12.0953C36.5685 12.545 36.3351 13.1613 36.2025 13.7523ZM37.8849 13.7887C38.0564 13.0545 38.2534 12.4333 38.7638 12.4333C39.0866 12.4333 39.2565 12.7311 39.222 13.2391C39.1946 13.3657 39.165 13.4992 39.1298 13.6502C39.0788 13.8684 39.0234 14.0847 38.9696 14.3013C38.9148 14.4494 38.851 14.5891 38.781 14.6822C38.6496 14.8683 38.3372 14.9838 38.1573 14.9838C38.1062 14.9838 37.7913 14.9838 37.7804 14.5194C37.7779 14.2882 37.8255 14.0501 37.8849 13.7887ZM46.6709 11.3645L46.609 11.2939C45.8163 11.4545 45.6728 11.48 44.9446 11.5783L44.8911 11.6319C44.8886 11.6406 44.8864 11.654 44.8827 11.6661L44.8802 11.654C44.338 12.9048 44.3539 12.6349 43.9126 13.6197C43.9101 13.5748 43.9101 13.5468 43.9076 13.4992L43.7971 11.3645L43.7277 11.2939C42.8974 11.4545 42.8778 11.48 42.1109 11.5783L42.0511 11.6319C42.0427 11.6574 42.0427 11.6854 42.0378 11.7159L42.0427 11.7268C42.1386 12.2167 42.1156 12.1074 42.2117 12.8805C42.2565 13.2599 42.3163 13.6414 42.3611 14.0162C42.4367 14.6433 42.4791 14.952 42.5715 15.909C42.0536 16.7636 41.931 17.087 41.4324 17.837L41.4359 17.8445L41.0848 18.3997C41.0446 18.4582 41.0082 18.4984 40.9572 18.5155C40.9012 18.5432 40.8283 18.5482 40.7272 18.5482H40.5327L40.2436 19.5099L41.2354 19.527C41.8177 19.5245 42.1837 19.2522 42.3807 18.8862L43.0044 17.8174H42.9945L43.0601 17.7421C43.4797 16.8389 46.6709 11.3645 46.6709 11.3645ZM36.2024 23.9948H35.7817L37.339 18.8437H37.8557L38.0197 18.3131L38.0355 18.9031C38.0163 19.2679 38.3032 19.5913 39.057 19.5377H39.9287L40.2287 18.5459H39.9007C39.7121 18.5459 39.6247 18.4982 39.6356 18.3962L39.6197 17.7958H38.0054V17.7989C37.4834 17.8098 35.9248 17.849 35.6093 17.9331C35.2274 18.0314 34.825 18.3208 34.825 18.3208L34.9831 17.7896H33.473L33.1584 18.8437L31.5802 24.0735H31.2739L30.9736 25.0582H33.9812L33.8804 25.3865H35.3624L35.4608 25.0582H35.8766L36.2024 23.9948ZM34.9684 19.8903C34.7266 19.9573 34.2766 20.1602 34.2766 20.1602L34.6768 18.8437H35.8766L35.5872 19.8029C35.5872 19.8029 35.2165 19.8247 34.9684 19.8903ZM34.9915 21.7711C34.9915 21.7711 34.6146 21.8184 34.3665 21.8744C34.1222 21.9485 33.6641 22.1819 33.6641 22.1819L34.0774 20.8119H35.2834L34.9915 21.7711ZM34.3192 24.0069H33.1157L33.4646 22.8507H34.6644L34.3192 24.0069ZM37.2175 20.8119H38.9523L38.703 21.6192H36.9452L36.6813 22.5018H38.2194L37.0548 24.1417C36.9732 24.2621 36.9001 24.3047 36.8189 24.3387C36.7373 24.38 36.6303 24.4286 36.5064 24.4286H36.0797L35.7865 25.3953H36.9026C37.4827 25.3953 37.8253 25.1313 38.0784 24.785L38.877 23.6919L39.0485 24.8018C39.0849 25.0097 39.2343 25.1313 39.3354 25.1786C39.4471 25.2347 39.5626 25.3308 39.7257 25.3452C39.9006 25.3526 40.0269 25.3585 40.111 25.3585H40.6594L40.9886 24.2767H40.7723C40.6481 24.2767 40.4343 24.2559 40.3979 24.217C40.3615 24.1697 40.3615 24.0968 40.3419 23.986L40.1679 22.8737H39.4555L39.768 22.5018H41.5224L41.7922 21.6192H40.1679L40.421 20.8119H42.0402L42.3406 19.8163H37.5129L37.2175 20.8119ZM22.5657 24.2317L22.9706 22.8847H24.6347L24.9388 21.8829H23.2731L23.5274 21.0538H25.1551L25.4566 20.0837H21.384L21.0886 21.0538H22.0139L21.7671 21.8829H20.8393L20.5318 22.9018H21.4568L20.9171 24.6839C20.8443 24.9198 20.9514 25.0097 21.0192 25.1193C21.0886 25.226 21.159 25.2967 21.3171 25.3368C21.4801 25.3733 21.5919 25.395 21.7437 25.395H23.6198L23.9541 24.2852L23.1225 24.3994C22.9619 24.3994 22.5171 24.3801 22.5657 24.2317ZM22.7566 17.7835L22.3349 18.5457C22.2446 18.7122 22.1634 18.8155 22.0902 18.8631C22.0258 18.9033 21.8982 18.9201 21.7133 18.9201H21.4933L21.1992 19.8952H21.9299C22.2813 19.8952 22.5512 19.7663 22.68 19.7019C22.8185 19.6278 22.8549 19.6701 22.962 19.5668L23.2088 19.353H25.4907L25.7935 18.3378H24.1231L24.4148 17.7835H22.7566ZM26.1254 24.2513C26.0865 24.1952 26.1145 24.0966 26.1739 23.8912L26.7976 21.8268H29.0163C29.3397 21.8222 29.5731 21.8184 29.725 21.8075C29.8881 21.7904 30.0655 21.7322 30.2587 21.6277C30.4582 21.5181 30.5603 21.4026 30.6465 21.2701C30.7427 21.1378 30.897 20.8483 31.0296 20.4021L31.8136 17.7896L29.5112 17.803C29.5112 17.803 28.8022 17.9076 28.49 18.0231C28.1751 18.1519 27.7251 18.5117 27.7251 18.5117L27.933 17.7956H26.5107L24.5195 24.3994C24.4488 24.6559 24.4015 24.842 24.3906 24.9537C24.3869 25.0741 24.5425 25.1933 24.6433 25.2833C24.7625 25.3732 24.9387 25.3586 25.1077 25.3732C25.2854 25.3866 25.5381 25.395 25.887 25.395H26.98L27.3155 24.2622L26.337 24.3546C26.2324 24.3546 26.1568 24.2986 26.1254 24.2513ZM27.2 20.4326H29.5305L29.3823 20.8969C29.3615 20.9078 29.3117 20.8739 29.0745 20.9019H27.0565L27.2 20.4326ZM27.6669 18.8752H30.0169L29.8479 19.4345C29.8479 19.4345 28.7403 19.4236 28.5629 19.4562C27.7823 19.5913 27.3264 20.0084 27.3264 20.0084L27.6669 18.8752ZM29.4345 22.4519C29.4152 22.5213 29.3847 22.5636 29.3421 22.5953C29.2947 22.6258 29.2182 22.6367 29.104 22.6367H28.7719L28.7915 22.0712H27.4103L27.3543 24.8358C27.3521 25.0353 27.3714 25.1508 27.5173 25.2432C27.6633 25.3587 28.113 25.3733 28.7184 25.3733H29.5839L29.8963 24.3385L29.1429 24.3799L28.8923 24.3945C28.8581 24.3799 28.8254 24.3665 28.789 24.3301C28.7573 24.2987 28.7037 24.318 28.7124 24.1185L28.7184 23.4098L29.5086 23.3771C29.9352 23.3771 30.1176 23.2383 30.2732 23.1061C30.4217 22.9794 30.4702 22.8337 30.5263 22.6367L30.6588 22.0093H29.573L29.4345 22.4519Z" fill="#FEFEFE"/>
</g>
<defs>
<clipPath id="clip0_2236_16074">
<path d="M0 3C0 1.34315 1.34315 0 3 0H47C48.6569 0 50 1.34315 50 3V29C50 30.6569 48.6569 32 47 32H3C1.34315 32 0 30.6569 0 29V3Z" fill="white"/>
</clipPath>
</defs>
</svg>
